<svg width="733" height="547" viewBox="0 0 733 547" fill="none" xmlns="http://www.w3.org/2000/svg">
<rect x="116.345" y="46.6287" width="500" height="500" rx="40" fill="#F4F5FB"/>
<circle cx="258.345" cy="211.629" r="8" fill="#FCBC07"/>
<circle cx="114.345" cy="132.629" r="8" fill="#FCBC07"/>
<circle cx="460.345" cy="289.629" r="8" fill="#1874D2"/>
<circle cx="524.345" cy="289.629" r="8" fill="#1874D2"/>
<circle cx="600.345" cy="367.629" r="8" fill="#14C7DE"/>
<circle cx="366.345" cy="447.629" r="8" fill="#14C7DE"/>
<circle cx="282.345" cy="132.629" r="8" fill="#FCBC07"/>
<circle cx="450.345" cy="132.629" r="8" fill="#FCBC07"/>
<circle cx="618.345" cy="132.629" r="8" fill="#FCBC07"/>
<g filter="url(#filter0_d_26_1129)">
<rect x="224.345" y="16.6287" width="116" height="116" rx="14" fill="white"/>
<rect x="224.845" y="17.1287" width="115" height="115" rx="13.5" stroke="#05172A" stroke-opacity="0.1"/>
</g>
<g clip-path="url(#clip0_26_1129)">
<path d="M279.587 98.7449C288.264 97.1626 295.43 95.8532 295.512 95.8352L295.662 95.8025L287.471 85.7439C282.965 80.2117 279.279 75.6639 279.279 75.6377C279.279 75.5881 287.737 51.5424 287.785 51.4568C287.801 51.4282 293.557 61.6874 301.738 76.3259C309.397 90.0306 315.712 101.33 315.771 101.436L315.878 101.629L289.845 101.625L263.812 101.622L279.587 98.7449ZM248.345 95.6775C248.345 95.6633 252.205 88.7464 256.922 80.3065L265.499 64.9613L275.495 56.3016C280.993 51.5387 285.506 47.636 285.524 47.6289C285.542 47.6217 285.469 47.8097 285.363 48.0464C285.257 48.2832 280.372 59.0983 274.509 72.0801L263.849 95.6831L256.097 95.6932C251.834 95.6987 248.345 95.6916 248.345 95.6775Z" fill="#0089D6"/>
</g>
<g filter="url(#filter1_d_26_1129)">
<rect x="392.345" y="16.6287" width="116" height="116" rx="14" fill="white"/>
<rect x="392.845" y="17.1287" width="115" height="115" rx="13.5" stroke="#05172A" stroke-opacity="0.1"/>
</g>
<g clip-path="url(#clip1_26_1129)">
<path d="M461.565 62.5371L467.476 56.698L467.868 54.2403C457.099 44.5637 439.977 45.6623 430.266 56.5292C427.568 59.5465 425.569 63.3099 424.501 67.1977L426.618 66.9016L438.44 64.977L439.351 64.0561C444.608 58.3502 453.502 57.5833 459.572 62.4364L461.565 62.5371Z" fill="#EA4335"/>
<path d="M475.899 67.0237C474.541 62.0818 471.751 57.6373 467.872 54.238L459.575 62.4341C463.079 65.2619 465.073 69.5198 464.989 73.988V75.4419C469.065 75.4419 472.371 78.7078 472.371 82.7348C472.371 86.7618 469.065 89.9479 464.989 89.9479H450.202L448.751 91.5054V100.255L450.202 101.629H464.989C475.594 101.712 484.259 93.3649 484.343 82.8888C484.394 76.5374 481.223 70.5828 475.899 67.0237Z" fill="#4285F4"/>
<path d="M435.439 101.625H450.208V89.9471H435.439C434.393 89.9471 433.362 89.7221 432.412 89.2927L430.317 89.9264L424.364 95.7655L423.845 97.7523C427.184 100.243 431.258 101.643 435.439 101.625Z" fill="#34A853"/>
<path d="M435.436 63.746C424.828 63.8081 416.283 72.3536 416.346 82.8327C416.382 88.6836 419.148 94.1911 423.842 97.7591L432.409 89.2966C428.692 87.6384 427.04 83.3183 428.719 79.6466C430.398 75.975 434.771 74.3434 438.488 76.0016C440.124 76.733 441.437 78.0269 442.178 79.6466L450.744 71.184C447.099 66.476 441.434 63.7252 435.436 63.746Z" fill="#FBBC05"/>
</g>
<g filter="url(#filter2_d_26_1129)">
<rect x="560.345" y="16.6287" width="116" height="116" rx="14" fill="white"/>
<rect x="560.845" y="17.1287" width="115" height="115" rx="13.5" stroke="#05172A" stroke-opacity="0.1"/>
</g>
<g clip-path="url(#clip2_26_1129)">
<path fill-rule="evenodd" clip-rule="evenodd" d="M618.345 42.6287C600.665 42.6287 586.345 56.9487 586.345 74.6287C586.345 88.7887 595.505 100.749 608.225 104.989C609.825 105.269 610.425 104.309 610.425 103.469C610.425 102.709 610.385 100.189 610.385 97.5087C602.345 98.9887 600.265 95.5487 599.625 93.7487C599.265 92.8287 597.705 89.9887 596.345 89.2287C595.225 88.6287 593.625 87.1487 596.305 87.1087C598.825 87.0687 600.625 89.4287 601.225 90.3887C604.105 95.2287 608.705 93.8687 610.545 93.0287C610.825 90.9487 611.665 89.5487 612.585 88.7487C605.465 87.9487 598.025 85.1887 598.025 72.9487C598.025 69.4687 599.265 66.5887 601.305 64.3487C600.985 63.5487 599.865 60.2687 601.625 55.8687C601.625 55.8687 604.305 55.0287 610.425 59.1487C612.985 58.4287 615.705 58.0687 618.425 58.0687C621.145 58.0687 623.865 58.4287 626.425 59.1487C632.545 54.9887 635.225 55.8687 635.225 55.8687C636.985 60.2687 635.865 63.5487 635.545 64.3487C637.585 66.5887 638.825 69.4287 638.825 72.9487C638.825 85.2287 631.345 87.9487 624.225 88.7487C625.385 89.7487 626.385 91.6687 626.385 94.6687C626.385 98.9487 626.345 102.389 626.345 103.469C626.345 104.309 626.945 105.309 628.545 104.989C641.185 100.749 650.345 88.7487 650.345 74.6287C650.345 56.9487 636.025 42.6287 618.345 42.6287Z" fill="#1B1F23"/>
</g>
<g filter="url(#filter3_d_26_1129)">
<rect x="56.3452" y="16.6287" width="116" height="116" rx="14" fill="white"/>
<rect x="56.8452" y="17.1287" width="115" height="115" rx="13.5" stroke="#05172A" stroke-opacity="0.1"/>
</g>
<g clip-path="url(#clip3_26_1129)">
<path d="M99.6738 68.9479C99.6738 69.8017 99.7633 70.494 99.9199 71.0017C100.099 71.5094 100.323 72.0633 100.636 72.6633C100.748 72.8479 100.792 73.0325 100.792 73.194C100.792 73.4248 100.658 73.6556 100.367 73.8864L98.958 74.8556C98.7567 74.994 98.5554 75.0633 98.3765 75.0633C98.1528 75.0633 97.9291 74.9479 97.7054 74.7402C97.3923 74.394 97.1238 74.0248 96.9002 73.6556C96.6765 73.2633 96.4528 72.8248 96.2067 72.294C94.462 74.4171 92.2699 75.4787 89.6304 75.4787C87.7515 75.4787 86.2528 74.9248 85.1567 73.8171C84.0607 72.7094 83.5015 71.2325 83.5015 69.3864C83.5015 67.4248 84.1725 65.8325 85.537 64.6325C86.9015 63.4325 88.7133 62.8325 91.0173 62.8325C91.7778 62.8325 92.5607 62.9017 93.3883 63.0171C94.2159 63.1325 95.0659 63.3171 95.9607 63.5248V61.8402C95.9607 60.0864 95.6028 58.8633 94.9094 58.1479C94.1936 57.4325 92.9857 57.0864 91.2633 57.0864C90.4804 57.0864 89.6751 57.1787 88.8475 57.3864C88.0199 57.594 87.2146 57.8479 86.4317 58.171C86.0738 58.3325 85.8054 58.4248 85.6488 58.471C85.4923 58.5171 85.3804 58.5402 85.2909 58.5402C84.9778 58.5402 84.8212 58.3094 84.8212 57.8248V56.694C84.8212 56.3248 84.8659 56.0479 84.9778 55.8864C85.0896 55.7248 85.2909 55.5633 85.6041 55.4017C86.387 54.9864 87.3265 54.6402 88.4225 54.3633C89.5186 54.0633 90.6817 53.9248 91.912 53.9248C94.5738 53.9248 96.5199 54.5479 97.7725 55.794C99.0028 57.0402 99.6291 58.9325 99.6291 61.471V68.9479H99.6738ZM90.5923 72.4556C91.3304 72.4556 92.0909 72.3171 92.8962 72.0402C93.7015 71.7633 94.4173 71.2556 95.0212 70.5633C95.3791 70.1248 95.6475 69.6402 95.7817 69.0864C95.9159 68.5325 96.0054 67.8633 96.0054 67.0787V66.1094C95.3567 65.9479 94.6633 65.8094 93.9475 65.7171C93.2317 65.6248 92.5383 65.5787 91.8449 65.5787C90.3462 65.5787 89.2501 65.8787 88.512 66.5017C87.7738 67.1248 87.4159 68.0017 87.4159 69.1556C87.4159 70.2402 87.6844 71.0479 88.2436 71.6017C88.7804 72.1787 89.5633 72.4556 90.5923 72.4556ZM108.554 74.9479C108.151 74.9479 107.883 74.8787 107.704 74.7171C107.525 74.5787 107.369 74.2556 107.234 73.8171L101.978 55.9787C101.844 55.5171 101.776 55.2171 101.776 55.0556C101.776 54.6864 101.955 54.4787 102.313 54.4787H104.505C104.93 54.4787 105.221 54.5479 105.378 54.7094C105.557 54.8479 105.691 55.171 105.825 55.6094L109.583 70.8864L113.073 55.6094C113.184 55.1479 113.319 54.8479 113.498 54.7094C113.676 54.571 113.99 54.4787 114.392 54.4787H116.182C116.607 54.4787 116.898 54.5479 117.076 54.7094C117.255 54.8479 117.412 55.171 117.501 55.6094L121.036 71.071L124.905 55.6094C125.04 55.1479 125.196 54.8479 125.353 54.7094C125.532 54.571 125.823 54.4787 126.225 54.4787H128.305C128.663 54.4787 128.865 54.6633 128.865 55.0556C128.865 55.171 128.842 55.2864 128.82 55.4248C128.798 55.5633 128.753 55.7479 128.663 56.0017L123.273 73.8402C123.138 74.3017 122.982 74.6017 122.803 74.7402C122.624 74.8787 122.333 74.971 121.953 74.971H120.029C119.604 74.971 119.313 74.9017 119.134 74.7402C118.955 74.5787 118.799 74.2787 118.709 73.8171L115.242 58.9325L111.798 73.794C111.686 74.2556 111.551 74.5556 111.373 74.7171C111.194 74.8787 110.88 74.9479 110.478 74.9479H108.554ZM137.298 75.571C136.134 75.571 134.971 75.4325 133.853 75.1556C132.734 74.8787 131.862 74.5787 131.28 74.2325C130.923 74.0248 130.676 73.794 130.587 73.5864C130.498 73.3787 130.453 73.1479 130.453 72.9402V71.7633C130.453 71.2787 130.632 71.0479 130.967 71.0479C131.101 71.0479 131.236 71.071 131.37 71.1171C131.504 71.1633 131.705 71.2556 131.929 71.3479C132.69 71.694 133.517 71.971 134.39 72.1556C135.284 72.3402 136.157 72.4325 137.051 72.4325C138.461 72.4325 139.557 72.1787 140.317 71.671C141.078 71.1633 141.48 70.4248 141.48 69.4787C141.48 68.8325 141.279 68.3017 140.876 67.8633C140.474 67.4248 139.713 67.0325 138.617 66.6633L135.374 65.6248C133.741 65.094 132.533 64.3094 131.795 63.271C131.057 62.2556 130.676 61.1248 130.676 59.9248C130.676 58.9556 130.878 58.1017 131.28 57.3633C131.683 56.6248 132.22 55.9787 132.891 55.471C133.562 54.9402 134.323 54.5479 135.217 54.271C136.112 53.994 137.051 53.8787 138.036 53.8787C138.528 53.8787 139.042 53.9017 139.534 53.971C140.049 54.0402 140.519 54.1325 140.988 54.2248C141.436 54.3402 141.861 54.4556 142.263 54.594C142.666 54.7325 142.979 54.871 143.203 55.0094C143.516 55.194 143.74 55.3787 143.874 55.5864C144.008 55.771 144.075 56.0248 144.075 56.3479V57.4325C144.075 57.9171 143.896 58.171 143.561 58.171C143.382 58.171 143.091 58.0787 142.711 57.894C141.436 57.294 140.004 56.994 138.416 56.994C137.141 56.994 136.134 57.2017 135.441 57.6402C134.748 58.0787 134.39 58.7479 134.39 59.694C134.39 60.3402 134.613 60.894 135.061 61.3325C135.508 61.771 136.336 62.2094 137.521 62.6017L140.698 63.6402C142.308 64.171 143.471 64.9094 144.165 65.8556C144.858 66.8017 145.194 67.8864 145.194 69.0864C145.194 70.0787 144.992 70.9787 144.612 71.7633C144.209 72.5479 143.673 73.2402 142.979 73.794C142.286 74.371 141.458 74.7864 140.496 75.0864C139.49 75.4094 138.438 75.571 137.298 75.571Z" fill="#252F3E"/>
<path fill-rule="evenodd" clip-rule="evenodd" d="M141.525 86.7879C134.166 92.3956 123.473 95.3725 114.28 95.3725C101.396 95.3725 89.7866 90.4571 81.0182 82.2879C80.3247 81.6417 80.9511 80.7648 81.7787 81.2725C91.2629 86.9494 102.962 90.3879 115.063 90.3879C123.227 90.3879 132.197 88.634 140.451 85.034C141.681 84.4571 142.733 85.8648 141.525 86.7879Z" fill="#FF9900"/>
<path fill-rule="evenodd" clip-rule="evenodd" d="M144.587 83.1861C143.648 81.9399 138.369 82.5861 135.976 82.8861C135.26 82.9784 135.148 82.3323 135.797 81.8476C140.002 78.8015 146.914 79.6784 147.719 80.6938C148.524 81.7323 147.495 88.863 143.558 92.2784C142.955 92.8092 142.373 92.5323 142.641 91.8399C143.536 89.5553 145.527 84.4092 144.587 83.1861Z" fill="#FF9900"/>
</g>
<path d="M467.345 288.629V290.629H517.345V288.629H467.345Z" fill="#1874D2"/>
<path d="M576.345 408.629C590.152 408.629 601.345 397.436 601.345 383.629V374.629H599.345V383.629C599.345 396.331 589.048 406.629 576.345 406.629H390.345C376.538 406.629 365.345 417.822 365.345 431.629V440.629H367.345V431.629C367.345 418.926 377.643 408.629 390.345 408.629H576.345Z" fill="#14C7DE"/>
<path fill-rule="evenodd" clip-rule="evenodd" d="M277.287 175.629C280.928 173.325 283.345 169.262 283.345 164.635V139.629H281.345V139.782L115.345 152.476V140.629H113.345V152.629L115.345 152.476V152.494L113.345 152.647C113.345 166.454 124.538 177.647 138.345 177.647H263.395C259.759 179.952 257.345 184.012 257.345 188.635V204.629H259.345V188.635C259.345 182.735 263.99 177.92 269.822 177.647H426.345C426.671 177.647 426.995 177.641 427.317 177.629H594.345C608.152 177.629 619.345 166.436 619.345 152.629V139.629H617.345V152.629C617.345 165.331 607.048 175.629 594.345 175.629H436.203C445.108 171.804 451.345 162.954 451.345 152.647V139.629H449.345V152.647C449.345 165.037 439.548 175.139 427.278 175.629H277.287ZM115.345 152.494L281.345 139.782V164.635C281.345 170.584 276.623 175.43 270.722 175.629H138.345C125.643 175.629 115.345 165.331 115.345 152.629V152.494Z" fill="#FCBC07"/>
<defs>
<filter id="filter0_d_26_1129" x="168.345" y="0.628662" width="228" height="228" filterUnits="userSpaceOnUse" color-interpolation-filters="sRGB">
<feFlood flood-opacity="0" result="BackgroundImageFix"/>
<feColorMatrix in="SourceAlpha" type="matrix" values="0 0 0 0 0 0 0 0 0 0 0 0 0 0 0 0 0 0 127 0" result="hardAlpha"/>
<feMorphology radius="16" operator="erode" in="SourceAlpha" result="effect1_dropShadow_26_1129"/>
<feOffset dy="40"/>
<feGaussianBlur stdDeviation="36"/>
<feComposite in2="hardAlpha" operator="out"/>
<feColorMatrix type="matrix" values="0 0 0 0 0.0196078 0 0 0 0 0.0901961 0 0 0 0 0.164706 0 0 0 0.15 0"/>
<feBlend mode="normal" in2="BackgroundImageFix" result="effect1_dropShadow_26_1129"/>
<feBlend mode="normal" in="SourceGraphic" in2="effect1_dropShadow_26_1129" result="shape"/>
</filter>
<filter id="filter1_d_26_1129" x="336.345" y="0.628662" width="228" height="228" filterUnits="userSpaceOnUse" color-interpolation-filters="sRGB">
<feFlood flood-opacity="0" result="BackgroundImageFix"/>
<feColorMatrix in="SourceAlpha" type="matrix" values="0 0 0 0 0 0 0 0 0 0 0 0 0 0 0 0 0 0 127 0" result="hardAlpha"/>
<feMorphology radius="16" operator="erode" in="SourceAlpha" result="effect1_dropShadow_26_1129"/>
<feOffset dy="40"/>
<feGaussianBlur stdDeviation="36"/>
<feComposite in2="hardAlpha" operator="out"/>
<feColorMatrix type="matrix" values="0 0 0 0 0.0196078 0 0 0 0 0.0901961 0 0 0 0 0.164706 0 0 0 0.15 0"/>
<feBlend mode="normal" in2="BackgroundImageFix" result="effect1_dropShadow_26_1129"/>
<feBlend mode="normal" in="SourceGraphic" in2="effect1_dropShadow_26_1129" result="shape"/>
</filter>
<filter id="filter2_d_26_1129" x="504.345" y="0.628662" width="228" height="228" filterUnits="userSpaceOnUse" color-interpolation-filters="sRGB">
<feFlood flood-opacity="0" result="BackgroundImageFix"/>
<feColorMatrix in="SourceAlpha" type="matrix" values="0 0 0 0 0 0 0 0 0 0 0 0 0 0 0 0 0 0 127 0" result="hardAlpha"/>
<feMorphology radius="16" operator="erode" in="SourceAlpha" result="effect1_dropShadow_26_1129"/>
<feOffset dy="40"/>
<feGaussianBlur stdDeviation="36"/>
<feComposite in2="hardAlpha" operator="out"/>
<feColorMatrix type="matrix" values="0 0 0 0 0.0196078 0 0 0 0 0.0901961 0 0 0 0 0.164706 0 0 0 0.15 0"/>
<feBlend mode="normal" in2="BackgroundImageFix" result="effect1_dropShadow_26_1129"/>
<feBlend mode="normal" in="SourceGraphic" in2="effect1_dropShadow_26_1129" result="shape"/>
</filter>
<filter id="filter3_d_26_1129" x="0.345215" y="0.628662" width="228" height="228" filterUnits="userSpaceOnUse" color-interpolation-filters="sRGB">
<feFlood flood-opacity="0" result="BackgroundImageFix"/>
<feColorMatrix in="SourceAlpha" type="matrix" values="0 0 0 0 0 0 0 0 0 0 0 0 0 0 0 0 0 0 127 0" result="hardAlpha"/>
<feMorphology radius="16" operator="erode" in="SourceAlpha" result="effect1_dropShadow_26_1129"/>
<feOffset dy="40"/>
<feGaussianBlur stdDeviation="36"/>
<feComposite in2="hardAlpha" operator="out"/>
<feColorMatrix type="matrix" values="0 0 0 0 0.0196078 0 0 0 0 0.0901961 0 0 0 0 0.164706 0 0 0 0.15 0"/>
<feBlend mode="normal" in2="BackgroundImageFix" result="effect1_dropShadow_26_1129"/>
<feBlend mode="normal" in="SourceGraphic" in2="effect1_dropShadow_26_1129" result="shape"/>
</filter>
<clipPath id="clip0_26_1129">
<rect width="68" height="54" fill="white" transform="translate(248.345 47.6287)"/>
</clipPath>
<clipPath id="clip1_26_1129">
<rect width="68" height="54" fill="white" transform="translate(416.345 47.6287)"/>
</clipPath>
<clipPath id="clip2_26_1129">
<rect width="64" height="64" fill="white" transform="translate(586.345 42.6287)"/>
</clipPath>
<clipPath id="clip3_26_1129">
<rect width="68" height="42" fill="white" transform="translate(80.3452 53.6287)"/>
</clipPath>
</defs>
</svg>
